<svg width="41" height="75" viewBox="0 0 41 75" fill="none" xmlns="http://www.w3.org/2000/svg">
<path d="M28.7359 12.509C28.7359 12.509 40.8224 16.7099 36.6449 19.5497C32.4675 22.3894 18.9494 58.1561 21.7422 62.803C24.535 67.4498 33.4767 52.1012 38.499 57.2174C43.5214 62.3337 36.1521 74.913 28.2666 73.9742C20.381 73.0355 16.5321 65.1264 18.5035 55.3633C20.4749 45.6003 26.8819 29.7821 27.8911 26.52C28.9002 23.2578 25.0982 21.4037 19.5126 24.6659C13.927 27.9281 4.16389 22.319 1.37108 16.2875C-1.42173 10.2559 0.901741 -3.43054e-06 0.901741 -3.43054e-06C0.901741 -3.43054e-06 -0.952351 5.11627 8.34136 7.43969C17.6351 9.76312 25.4737 11.1243 28.7359 12.509Z" fill="white"/>
</svg>
