<svg width="57" height="64" viewBox="0 0 57 64" fill="none" xmlns="http://www.w3.org/2000/svg">
<path d="M10.8435 8.38176C14.586 6.46939 18.2213 4.35402 21.7331 2.04513C27.0605 -1.52216 29.9707 0.191093 29.2666 2.53799C28.5625 4.88489 33.0686 21.6183 39.8746 30.4661C46.6806 39.3139 46.0469 29.1987 51.1866 27.462C56.3263 25.7253 59.0722 30.8181 55.1294 36.6619C51.1866 42.5056 42.3154 40.7455 41.048 37.1547C37.5288 29.1917 33.5318 21.4485 29.0789 13.9674C26.5911 10.1654 24.7606 10.3297 20.278 14.7888C18.3815 16.7813 16.023 18.2756 13.4114 19.1393C10.7997 20.0031 8.01534 20.2096 5.30479 19.7407C5.30479 19.7407 14.5046 37.319 17.2974 42.9281C20.0902 48.5372 22.4137 55.7187 26.685 55.5779C30.9564 55.4371 35.4624 47.2229 38.7481 52.2922C42.0337 57.3615 32.2237 65.7634 27.0136 63.3461C21.8035 60.9288 18.4944 49.8984 14.5985 42.224C10.7027 34.5497 -0.656328 14.4602 0.0242719 11.7143C0.704875 8.96848 5.77417 11.6909 10.8435 8.38176Z" fill="white"/>
</svg>
