<svg width="93" height="104" viewBox="0 0 93 104" fill="none" xmlns="http://www.w3.org/2000/svg">
<path d="M17.8081 13.8997C23.8642 10.8451 29.7481 7.46051 35.4333 3.76112C44.0229 -1.98878 48.7167 0.757106 47.5902 4.58255C46.4637 8.40799 53.7156 35.3034 64.6756 49.5726C75.6356 63.8417 74.65 47.5308 82.911 44.738C91.1721 41.9452 95.6547 50.1358 89.2946 59.5704C82.9345 69.0049 68.6184 66.1651 66.7409 60.3683C64.8634 54.5715 51.3922 29.1311 47.4259 22.9822C43.4597 16.8333 40.3852 17.115 33.3446 24.3199C30.2589 27.5654 26.4154 29.9936 22.1592 31.3864C17.9031 32.7791 13.3677 33.0929 8.96029 32.2994C8.96029 32.2994 23.6519 60.5561 28.1579 69.5916C32.664 78.6272 36.419 90.2208 43.1077 89.9862C49.7963 89.7515 57.189 76.5149 62.5869 84.6821C67.9848 92.8493 52.0493 106.391 43.5535 102.519C35.0578 98.6462 29.8007 80.8332 23.511 68.512C17.2214 56.1908 -1.08444 23.7801 0.0420668 19.2272C1.16858 14.6742 9.64088 19.2272 17.8081 13.8997Z" fill="white"/>
</svg>
