<svg width="58" height="65" viewBox="0 0 58 65" fill="none" xmlns="http://www.w3.org/2000/svg">
<path d="M11.1344 8.66191C14.8962 6.74842 18.5475 4.62506 22.071 2.30183C27.3984 -1.24198 30.3085 0.471221 29.6045 2.81812C28.9004 5.16502 33.4065 21.8984 40.2125 30.7228C47.0185 39.5471 46.3848 29.4789 51.5245 27.7422C56.6642 26.0055 59.4101 31.0748 55.4673 36.942C51.5245 42.8093 42.6533 41.0256 41.3859 37.4349C37.8667 29.4718 33.8697 21.7286 29.4168 14.2475C26.929 10.4456 25.0985 10.6098 20.6159 15.0689C18.6979 17.0802 16.3116 18.5851 13.6701 19.4492C11.0286 20.3133 8.21425 20.5097 5.47837 20.0209C5.47837 20.0209 14.6548 37.5992 17.4711 43.2082C20.2873 48.8173 22.5873 55.9988 26.8586 55.858C31.13 55.7172 35.636 47.5031 38.9217 52.5724C42.2073 57.6417 32.3973 66.0435 27.1872 63.6262C21.9771 61.2089 18.6679 50.1785 14.7721 42.5042C10.8762 34.8298 -0.482747 14.7638 0.197852 11.9945C0.878455 9.22516 5.9947 11.971 11.1344 8.66191Z" fill="white"/>
</svg>
