<svg width="41" height="75" viewBox="0 0 41 75" fill="none" xmlns="http://www.w3.org/2000/svg">
<path d="M29.3622 12.8858C29.3622 12.8858 41.4722 17.0868 37.2712 19.9265C33.0703 22.7663 19.5991 58.533 22.3919 63.2268C25.1847 67.9206 34.009 52.5249 39.1487 57.6412C44.2884 62.7574 36.8018 75.3133 28.8928 74.3746C20.9837 73.4358 17.2756 65.5503 19.1297 55.7637C20.9837 45.9771 27.5081 30.1825 28.5173 26.9203C29.5264 23.6581 25.7245 21.804 20.1389 25.0662C14.5533 28.3284 4.76668 22.7194 1.97387 16.6879C-0.81894 10.6563 1.52795 0.400387 1.52795 0.400387C1.52795 0.400387 -0.349537 5.51658 8.96765 7.84001C18.2848 10.1634 26.1 11.595 29.3622 12.8858Z" fill="white"/>
</svg>
